<?xml version="1.0" encoding="UTF-8" standalone="no"?>
<svg width="60px" height="60px" viewBox="0 0 60 60" version="1.1" xmlns="http://www.w3.org/2000/svg" xmlns:xlink="http://www.w3.org/1999/xlink">
    <!-- Generator: Sketch 40.1 (33804) - http://www.bohemiancoding.com/sketch -->
    <title>22 -Pinterest- (social, media, communication, retro)</title>
    <desc>Created with Sketch.</desc>
    <defs></defs>
    <g id="Page-1" stroke="none" stroke-width="1" fill="none" fill-rule="evenodd">
        <g id="Icons" transform="translate(-240.000000, -618.000000)">
            <g id="22--Pinterest--(social,-media,-communication,-retro)" transform="translate(241.000000, 619.000000)">
                <path d="M29.0054,0.0071 C12.9914,0.0071 0.0094,12.9881 0.0094,29.0051 C0.0094,40.8801 7.1474,51.0791 17.3654,55.5621 C17.2844,53.5351 17.3514,51.1041 17.8694,48.9051 C18.4284,46.5471 21.6004,33.1001 21.6004,33.1001 C21.6004,33.1001 20.6724,31.2491 20.6724,28.5161 C20.6724,24.2211 23.1664,21.0111 26.2684,21.0111 C28.9034,21.0111 30.1784,22.9891 30.1784,25.3621 C30.1784,28.0121 28.4854,31.9781 27.6184,35.6511 C26.8914,38.7251 29.1634,41.2341 32.1904,41.2341 C37.6844,41.2341 41.3844,34.1811 41.3844,25.8181 C41.3844,19.4651 37.1044,14.7101 29.3204,14.7101 C20.5254,14.7101 15.0474,21.2671 15.0474,28.5941 C15.0474,31.1211 15.7924,32.9031 16.9584,34.2821 C17.4964,34.9171 17.5704,35.1681 17.3734,35.8971 C17.2394,36.4341 16.9204,37.7151 16.7854,38.2231 C16.5914,38.9611 15.9994,39.2221 15.3334,38.9481 C11.2824,37.2981 9.3974,32.8611 9.3974,27.8721 C9.3974,19.6371 16.3414,9.7581 30.1224,9.7581 C41.1904,9.7581 48.4814,17.7701 48.4814,26.3701 C48.4814,37.7441 42.1534,46.2421 32.8324,46.2421 C29.6994,46.2421 26.7544,44.5491 25.7494,42.6311 C25.7494,42.6311 24.0644,49.3131 23.7104,50.6001 C23.0944,52.8321 21.8904,55.0701 20.7924,56.8121 C23.3954,57.5831 26.1504,58.0021 29.0054,58.0021 C45.0194,58.0021 58.0004,45.0221 58.0004,29.0051 C58.0004,12.9881 45.0194,0.0071 29.0054,0.0071" id="Fill-105" fill="#CB0006"></path>
                <path d="M29.0054,0.0071 C12.9914,0.0071 0.0094,12.9881 0.0094,29.0051 C0.0094,40.8801 7.1474,51.0791 17.3654,55.5621 C17.2844,53.5351 17.3514,51.1041 17.8694,48.9051 C18.4284,46.5471 21.6004,33.1001 21.6004,33.1001 C21.6004,33.1001 20.6724,31.2491 20.6724,28.5161 C20.6724,24.2211 23.1664,21.0111 26.2684,21.0111 C28.9034,21.0111 30.1784,22.9891 30.1784,25.3621 C30.1784,28.0121 28.4854,31.9781 27.6184,35.6511 C26.8914,38.7251 29.1634,41.2341 32.1904,41.2341 C37.6844,41.2341 41.3844,34.1811 41.3844,25.8181 C41.3844,19.4651 37.1044,14.7101 29.3204,14.7101 C20.5254,14.7101 15.0474,21.2671 15.0474,28.5941 C15.0474,31.1211 15.7924,32.9031 16.9584,34.2821 C17.4964,34.9171 17.5704,35.1681 17.3734,35.8971 C17.2394,36.4341 16.9204,37.7151 16.7854,38.2231 C16.5914,38.9611 15.9994,39.2221 15.3334,38.9481 C11.2824,37.2981 9.3974,32.8611 9.3974,27.8721 C9.3974,19.6371 16.3414,9.7581 30.1224,9.7581 C41.1904,9.7581 48.4814,17.7701 48.4814,26.3701 C48.4814,37.7441 42.1534,46.2421 32.8324,46.2421 C29.6994,46.2421 26.7544,44.5491 25.7494,42.6311 C25.7494,42.6311 24.0644,49.3131 23.7104,50.6001 C23.0944,52.8321 21.8904,55.0701 20.7924,56.8121 C23.3954,57.5831 26.1504,58.0021 29.0054,58.0021 C45.0194,58.0021 58.0004,45.0221 58.0004,29.0051 C58.0004,12.9881 45.0194,0.0071 29.0054,0.0071 L29.0054,0.0071 Z" id="Stroke-191" stroke="#000000" stroke-width="2"></path>
            </g>
        </g>
    </g>
</svg>