<?xml version="1.0" encoding="UTF-8" standalone="no"?>
<svg width="60px" height="60px" viewBox="0 0 60 60" version="1.1" xmlns="http://www.w3.org/2000/svg" xmlns:xlink="http://www.w3.org/1999/xlink">
    <!-- Generator: Sketch 40.1 (33804) - http://www.bohemiancoding.com/sketch -->
    <title>3 -Instagram- (social, media, communication, retro)</title>
    <desc>Created with Sketch.</desc>
    <defs></defs>
    <g id="Page-1" stroke="none" stroke-width="1" fill="none" fill-rule="evenodd">
        <g id="Icons" transform="translate(-360.000000, -378.000000)">
            <g id="3--Instagram--(social,-media,-communication,-retro)" transform="translate(361.000000, 379.000000)">
                <path d="M41.9167,58.0001 L16.0837,58.0001 C7.2007,58.0001 -0.0003,50.7991 -0.0003,41.9171 L-0.0003,16.0831 C-0.0003,7.2011 7.2007,0.0001 16.0837,0.0001 L41.9167,0.0001 C50.7997,0.0001 57.9997,7.2011 57.9997,16.0831 L57.9997,41.9171 C57.9997,50.7991 50.7997,58.0001 41.9167,58.0001" id="Fill-145" fill="#C000BB"></path>
                <path d="M44,16.0001 C44,14.8951 43.105,14.0001 42,14.0001 C40.895,14.0001 40,14.8951 40,16.0001 C40,17.1051 40.895,18.0001 42,18.0001 C43.105,18.0001 44,17.1051 44,16.0001" id="Fill-146" fill="#FFFFFF"></path>
                <path d="M29,38.0001 C24.161,38.0001 20,33.8391 20,29.0001 C20,24.1611 24.161,20.0001 29,20.0001 C33.839,20.0001 38,24.1611 38,29.0001 C38,33.8391 33.839,38.0001 29,38.0001 M29,16.0001 C21.82,16.0001 16,21.8201 16,29.0001 C16,36.1801 21.82,42.0001 29,42.0001 C36.18,42.0001 42,36.1801 42,29.0001 C42,21.8201 36.18,16.0001 29,16.0001" id="Fill-147" fill="#FFFFFF"></path>
                <path d="M48,42.4119 C48,45.4979 45.498,47.9999 42.412,47.9999 L15.588,47.9999 C12.502,47.9999 10,45.4979 10,42.4119 L10,15.5879 C10,12.5019 12.502,9.9999 15.588,9.9999 L42.412,9.9999 C45.498,9.9999 48,12.5019 48,15.5879 L48,42.4119 Z M42,5.9999 L16,5.9999 C10.477,5.9999 6,10.4769 6,15.9999 L6,41.9999 C6,47.5229 10.477,51.9999 16,51.9999 L42,51.9999 C47.523,51.9999 52,47.5229 52,41.9999 L52,15.9999 C52,10.4769 47.523,5.9999 42,5.9999 L42,5.9999 Z" id="Fill-148" fill="#FFFFFF"></path>
                <path d="M41.9167,58.0001 L16.0837,58.0001 C7.2007,58.0001 -0.0003,50.7991 -0.0003,41.9171 L-0.0003,16.0831 C-0.0003,7.2011 7.2007,0.0001 16.0837,0.0001 L41.9167,0.0001 C50.7997,0.0001 57.9997,7.2011 57.9997,16.0831 L57.9997,41.9171 C57.9997,50.7991 50.7997,58.0001 41.9167,58.0001 L41.9167,58.0001 Z" id="Stroke-154" stroke="#000000" stroke-width="2"></path>
                <path d="M16.083,52.0001 C10.523,52.0001 6,47.4771 6,41.9171 L6,16.0831 C6,10.5231 10.523,6.0001 16.083,6.0001 L41.917,6.0001 C47.477,6.0001 52,10.5231 52,16.0831 L52,41.9171 C52,47.4771 47.477,52.0001 41.917,52.0001 L16.083,52.0001 L16.083,52.0001 Z" id="Stroke-155" stroke="#000000" stroke-width="2"></path>
            </g>
        </g>
    </g>
</svg>